<?xml version="1.0" encoding="UTF-8" standalone="no"?>
<svg
   viewBox="0 0 123.119995 185.03999"
   version="1.2"
   id="svg20"
   xmlns="http://www.w3.org/2000/svg"
   xmlns:svg="http://www.w3.org/2000/svg">
  <defs
     id="defs5">
    <clipPath
       id="clip1">
      <path
         d="M 0 0 L 123 0 L 123 182.636719 L 0 182.636719 Z M 0 0 "
         id="path2" />
    </clipPath>
  </defs>
  <g
     id="surface1">
    <path
       style="fill:#b3b3b3;fill-opacity:1;fill-rule:nonzero;stroke:none"
       d="M 61.5,180.77344 9.855469,91.316406 C 4.621094,82.253906 1.863281,71.964844 1.863281,61.5 1.863281,28.566406 28.566406,1.863281 61.5,1.863281 c 32.933594,0 59.63672,26.703125 59.63672,59.636719 0,10.464844 -2.75781,20.753906 -7.99219,29.816406 z m 0,0"
       id="path7" />
    <g
       clip-path="url(#clip1)"
       clip-rule="nonzero"
       id="g11">
      <path
         style="fill:none;stroke:#7f7f7f;stroke-width:3;stroke-linecap:butt;stroke-linejoin:miter;stroke-miterlimit:10;stroke-opacity:1"
         d="M 81.999996,1.999038 151.27925,122.00238 c 7.02172,12.15701 10.72123,25.95942 10.72123,39.99762 0,44.17922 -35.82127,80.00048 -80.000484,80.00048 -44.179214,0 -80.000482,-35.82126 -80.000482,-80.00048 0,-14.0382 3.699505,-27.84061 10.721228,-39.99762 z m 0,0"
         transform="matrix(-0.745454,0,0,-0.745454,122.62726,182.26363)"
         id="path9" />
    </g>
    <path
       style="fill:#ffffff;fill-opacity:1;fill-rule:nonzero;stroke:#7f7f7f;stroke-width:3;stroke-linecap:butt;stroke-linejoin:miter;stroke-miterlimit:4;stroke-opacity:1"
       d="m 42.002385,77.000959 h 79.995245 v 20.00143 H 42.002385 Z m 0,0"
       transform="matrix(0.745454,0,0,0.745454,0.372727,0.372727)"
       id="path13" />
    <path
       style="fill:#ffffff;fill-opacity:1;fill-rule:nonzero;stroke:#7f7f7f;stroke-width:3;stroke-linecap:butt;stroke-linejoin:miter;stroke-miterlimit:4;stroke-opacity:1"
       d="M 1.998099,77.001424 H 102.00001 V 96.997615 H 1.998099 Z m 0,0"
       transform="matrix(0,0.745454,-0.745454,0,103.9909,26.463633)"
       id="path15" />
    <path
       style="fill:#ffffff;fill-opacity:1;fill-rule:nonzero;stroke:#7f7f7f;stroke-width:3;stroke-linecap:butt;stroke-linejoin:miter;stroke-miterlimit:4;stroke-opacity:1"
       d="M 61.998097,77.002369 H 162.00001 V 96.99856 H 61.998097 Z m 0,0"
       transform="matrix(0,0.745454,-0.745454,0,148.71817,-18.263634)"
       id="path17" />
  </g>
</svg>
