<?xml version="1.0" encoding="UTF-8" standalone="no"?>
<svg 
   viewBox="0 0 123.119995 185.03999"
   version="1.2"
   id="svg16"
   xmlns="http://www.w3.org/2000/svg"
   xmlns:svg="http://www.w3.org/2000/svg">
   <defs
     id="defs5">
    <clipPath
       id="clip1">
      <path
         d="M 0 0 L 123 0 L 123 182.636719 L 0 182.636719 Z M 0 0 "
         id="path2" />
    </clipPath>
  </defs>
  <g
     id="surface1">
    <path
       style="fill:#b3b3b3;fill-opacity:1;fill-rule:nonzero;stroke:none"
       d="M 61.5,180.77344 9.855469,91.316406 C 4.621094,82.253906 1.863281,71.964844 1.863281,61.5 1.863281,28.566406 28.566406,1.863281 61.5,1.863281 c 32.933594,0 59.63672,26.703125 59.63672,59.636719 0,10.464844 -2.75781,20.753906 -7.99219,29.816406 z m 0,0"
       id="path7" />
    <g
       clip-path="url(#clip1)"
       clip-rule="nonzero"
       id="g11">
      <path
         style="fill:none;stroke:#7f7f7f;stroke-width:3;stroke-linecap:butt;stroke-linejoin:miter;stroke-miterlimit:10;stroke-opacity:1"
         d="M 81.999996,1.999038 151.27925,122.00238 c 7.02172,12.15701 10.72123,25.95942 10.72123,39.99762 0,44.17922 -35.82127,80.00048 -80.000484,80.00048 -44.179214,0 -80.000482,-35.82126 -80.000482,-80.00048 0,-14.0382 3.699505,-27.84061 10.721228,-39.99762 z m 0,0"
         transform="matrix(-0.745454,0,0,-0.745454,122.62726,182.26363)"
         id="path9" />
    </g>
    <path
       style="fill:#ffffff;fill-opacity:1;fill-rule:nonzero;stroke:#7f7f7f;stroke-width:3;stroke-linecap:butt;stroke-linejoin:miter;stroke-miterlimit:4;stroke-opacity:1"
       d="m 121.99763,72.001911 c 0,1.310023 -0.0629,2.614806 -0.18865,3.919589 -0.131,1.304783 -0.31964,2.599085 -0.57641,3.882908 -0.25676,1.283822 -0.57641,2.551925 -0.95369,3.809547 -0.38253,1.252382 -0.8227,2.483803 -1.32575,3.694264 -0.4978,1.210462 -1.05849,2.394722 -1.67683,3.547542 -0.61833,1.158061 -1.28906,2.27944 -2.01743,3.36938 -0.72837,1.084699 -1.50915,2.137957 -2.33708,3.149295 -0.83318,1.016578 -1.71351,1.985995 -2.63577,2.908254 -0.92749,0.92749 -1.89691,1.80783 -2.90825,2.63576 -1.01658,0.83318 -2.06459,1.61395 -3.15453,2.34232 -1.08994,0.72838 -2.21132,1.39911 -3.36938,2.01744 -1.152823,0.61833 -2.337084,1.17378 -3.547545,1.67683 -1.210462,0.50305 -2.441883,0.94322 -3.694265,1.3205 -1.252382,0.38253 -2.525724,0.70217 -3.809547,0.9537 -1.283822,0.25676 -2.578125,0.45065 -3.882908,0.57641 -1.304783,0.131 -2.609566,0.19388 -3.919589,0.19388 -1.310023,0 -2.614806,-0.0629 -3.919588,-0.19388 -1.304783,-0.12576 -2.599086,-0.31965 -3.882909,-0.57641 -1.283822,-0.25153 -2.557164,-0.57117 -3.809546,-0.9537 -1.252382,-0.37728 -2.483804,-0.81745 -3.694265,-1.3205 -1.210461,-0.50305 -2.394722,-1.0585 -3.547542,-1.67683 -1.158061,-0.61833 -2.27944,-1.28906 -3.369379,-2.01744 -1.089939,-0.72837 -2.137958,-1.50914 -3.154536,-2.34232 -1.011337,-0.82793 -1.980754,-1.70827 -2.908251,-2.63576 -0.922256,-0.922259 -1.802591,-1.891676 -2.635766,-2.908254 -0.827934,-1.011338 -1.608708,-2.064596 -2.337081,-3.149295 -0.728373,-1.08994 -1.399104,-2.211319 -2.017435,-3.36938 -0.618331,-1.15282 -1.179021,-2.33708 -1.67683,-3.547542 -0.503048,-1.210461 -0.943216,-2.441882 -1.325743,-3.694264 -0.377286,-1.257622 -0.696932,-2.525725 -0.953697,-3.809547 -0.256764,-1.283823 -0.445407,-2.578125 -0.57641,-3.882908 -0.125762,-1.304783 -0.188643,-2.609566 -0.188643,-3.919589 0,-1.310023 0.06288,-2.620046 0.188643,-3.924829 0.131003,-1.299543 0.319646,-2.593845 0.57641,-3.882908 0.256765,-1.283822 0.576411,-2.551925 0.953697,-3.804307 0.382527,-1.252382 0.822695,-2.489043 1.325743,-3.699504 0.497809,-1.210462 1.058499,-2.389482 1.67683,-3.547543 0.618331,-1.15282 1.289062,-2.274199 2.017435,-3.364139 0.728373,-1.089939 1.509147,-2.143197 2.337081,-3.154535 0.833175,-1.011338 1.71351,-1.980755 2.635766,-2.908251 0.927497,-0.927496 1.896914,-1.807832 2.908251,-2.635766 1.016578,-0.833175 2.064597,-1.608708 3.154536,-2.337081 1.089939,-0.728373 2.211318,-1.404345 3.369379,-2.017435 1.15282,-0.618331 2.337081,-1.179021 3.547542,-1.68207 1.210461,-0.497809 2.441883,-0.943216 3.694265,-1.320503 1.252382,-0.382527 2.525724,-0.696932 3.809546,-0.953697 1.283823,-0.256764 2.578126,-0.450648 3.882909,-0.57641 1.304782,-0.131002 2.609565,-0.193883 3.919588,-0.193883 1.310023,0 2.614806,0.06288 3.919589,0.193883 1.304783,0.125762 2.599086,0.319646 3.882908,0.57641 1.283823,0.256765 2.557165,0.57117 3.809547,0.953697 1.252382,0.377287 2.483803,0.822694 3.694265,1.320503 1.210461,0.503049 2.394722,1.063739 3.547545,1.68207 1.15806,0.61309 2.27944,1.289062 3.36938,2.017435 1.08994,0.728373 2.13795,1.503906 3.15453,2.337081 1.01134,0.827934 1.98076,1.70827 2.90825,2.635766 0.92226,0.927496 1.80259,1.896913 2.63577,2.908251 0.82793,1.011338 1.60871,2.064596 2.33708,3.154535 0.72837,1.08994 1.3991,2.211319 2.01743,3.364139 0.61834,1.158061 1.17903,2.337081 1.67683,3.547543 0.50305,1.210461 0.94322,2.447122 1.32575,3.699504 0.37728,1.252382 0.69693,2.520485 0.95369,3.804307 0.25677,1.289063 0.44541,2.583365 0.57641,3.882908 0.12577,1.304783 0.18865,2.614806 0.18865,3.924829 z m 0,0"
       transform="matrix(0.745454,0,0,0.745454,0.372727,0.372727)"
       id="path13" />
  </g>
</svg>
