<?xml version="1.0" encoding="UTF-8" standalone="no"?>
<svg
   viewBox="0 0 198 199.92"
   version="1.2"
   id="svg31"
   xmlns="http://www.w3.org/2000/svg"
   xmlns:svg="http://www.w3.org/2000/svg">
  <defs
     id="defs8">
    <clipPath
       id="clip1">
      <path
         d="M 89 89 L 198 89 L 198 198 L 89 198 Z M 89 89 "
         id="path2" />
    </clipPath>
    <clipPath
       id="clip2">
      <path
         d="M 0 89 L 109 89 L 109 198 L 0 198 Z M 0 89 "
         id="path5" />
    </clipPath>
  </defs>
  <g
     id="surface1">
    <path
       style="fill:none;stroke:#7f7f7f;stroke-width:3;stroke-linecap:butt;stroke-linejoin:miter;stroke-miterlimit:4;stroke-opacity:1"
       d="M 52.000204,52.000204 H 211.99983 V 211.99983 H 52.000204 Z m 0,0"
       transform="matrix(0.74717,0,0,0.74717,0.373585,0.373585)"
       id="path10" />
    <path
       style="fill:#b3b3b3;fill-opacity:1;fill-rule:nonzero;stroke:#7f7f7f;stroke-width:3;stroke-linecap:butt;stroke-linejoin:miter;stroke-miterlimit:10;stroke-opacity:1"
       d="M 52.000204,52.000204 211.99983,132.00002 52.000204,211.99983 Z m 0,0"
       transform="matrix(0.74717,0,0,0.74717,0.373585,0.373585)"
       id="path12" />
    <path
       style="fill:#b3b3b3;fill-opacity:1;fill-rule:nonzero;stroke:none"
       d="m 121.41406,158.77344 c 0,-20.62891 16.73047,-37.35938 37.35938,-37.35938 9.90625,0 19.41015,3.9375 26.42187,10.94141 7,7.00781 10.9375,16.51172 10.9375,26.41797 0,9.90625 -3.9375,19.41015 -10.9375,26.42187 -7.01172,7 -16.51562,10.9375 -26.42187,10.9375 -9.90625,0 -19.41016,-3.9375 -26.41797,-10.9375 -7.00391,-7.01172 -10.94141,-16.51562 -10.94141,-26.42187 z m 37.35938,-18.67969 c -10.31641,0 -18.67969,8.36328 -18.67969,18.67969 0,10.32031 8.36328,18.67968 18.67969,18.67968 10.32031,0 18.67968,-8.35937 18.67968,-18.67968 0,-10.31641 -8.35937,-18.67969 -18.67968,-18.67969 z m 0,0"
       id="path14" />
    <g
       clip-path="url(#clip1)"
       clip-rule="nonzero"
       id="g18">
      <path
         style="fill:none;stroke:#7f7f7f;stroke-width:3;stroke-linecap:butt;stroke-linejoin:miter;stroke-miterlimit:10;stroke-opacity:1"
         d="m 161.99864,211.99983 c 0,-27.6094 22.39179,-50.00119 50.00119,-50.00119 13.25836,0 25.97824,5.26989 35.36261,14.6438 9.36869,9.37915 14.63858,22.09902 14.63858,35.35739 0,13.25836 -5.26989,25.97824 -14.63858,35.36261 -9.38437,9.36869 -22.10425,14.63858 -35.36261,14.63858 -13.25837,0 -25.97824,-5.26989 -35.35739,-14.63858 -9.37391,-9.38437 -14.6438,-22.10425 -14.6438,-35.36261 z m 50.00119,-25.0006 c -13.80732,0 -25.0006,11.19328 -25.0006,25.0006 0,13.81254 11.19328,25.00059 25.0006,25.00059 13.81254,0 25.00059,-11.18805 25.00059,-25.00059 0,-13.80732 -11.18805,-25.0006 -25.00059,-25.0006 z m 0,0"
         transform="matrix(0.74717,0,0,0.74717,0.373585,0.373585)"
         id="path16" />
    </g>
    <path
       style="fill:#b3b3b3;fill-opacity:1;fill-rule:nonzero;stroke:#7f7f7f;stroke-width:3;stroke-linecap:butt;stroke-linejoin:miter;stroke-miterlimit:10;stroke-opacity:1"
       d="m 161.99864,52.000204 c 0,-27.609398 22.39179,-50.00119 50.00119,-50.00119 13.25836,0 25.97824,5.269887 35.36261,14.638575 9.36869,9.384372 14.63858,22.104248 14.63858,35.362615 0,13.258366 -5.26989,25.978242 -14.63858,35.357386 -9.38437,9.373916 -22.10425,14.6438 -35.36261,14.6438 -13.25837,0 -25.97824,-5.269884 -35.35739,-14.6438 -9.37391,-9.379144 -14.6438,-22.09902 -14.6438,-35.357386 z m 50.00119,-25.000595 c -13.80732,0 -25.0006,11.188054 -25.0006,25.000595 0,13.807313 11.19328,25.000595 25.0006,25.000595 13.81254,0 25.00059,-11.193282 25.00059,-25.000595 0,-13.812541 -11.18805,-25.000595 -25.00059,-25.000595 z m 0,0"
       transform="matrix(0.74717,0,0,0.74717,0.373585,0.373585)"
       id="path20" />
    <path
       style="fill:#b3b3b3;fill-opacity:1;fill-rule:nonzero;stroke:none"
       d="m 1.867188,158.77344 c 0,-20.62891 16.730468,-37.35938 37.359374,-37.35938 9.90625,0 19.410157,3.9375 26.417969,10.94141 7.003907,7.00781 10.941407,16.51172 10.941407,26.41797 0,9.90625 -3.9375,19.41015 -10.941407,26.42187 -7.007812,7 -16.511719,10.9375 -26.417969,10.9375 -9.90625,0 -19.410156,-3.9375 -26.421874,-10.9375 -7,-7.01172 -10.9375,-16.51562 -10.9375,-26.42187 z m 37.359374,-18.67969 c -10.320312,0 -18.679687,8.36328 -18.679687,18.67969 0,10.32031 8.359375,18.67968 18.679687,18.67968 10.316407,0 18.679688,-8.35937 18.679688,-18.67968 0,-10.31641 -8.363281,-18.67969 -18.679688,-18.67969 z m 0,0"
       id="path22" />
    <g
       clip-path="url(#clip2)"
       clip-rule="nonzero"
       id="g26">
      <path
         style="fill:none;stroke:#7f7f7f;stroke-width:3;stroke-linecap:butt;stroke-linejoin:miter;stroke-miterlimit:10;stroke-opacity:1"
         d="m 1.999014,211.99983 c 0,-27.6094 22.391792,-50.00119 50.00119,-50.00119 13.258366,0 25.978242,5.26989 35.357386,14.6438 9.373916,9.37915 14.6438,22.09902 14.6438,35.35739 0,13.25836 -5.269884,25.97824 -14.6438,35.36261 -9.379144,9.36869 -22.09902,14.63858 -35.357386,14.63858 -13.258367,0 -25.978243,-5.26989 -35.362615,-14.63858 C 7.268901,237.97807 1.999014,225.25819 1.999014,211.99983 Z m 50.00119,-25.0006 c -13.812541,0 -25.000595,11.19328 -25.000595,25.0006 0,13.81254 11.188054,25.00059 25.000595,25.00059 13.807313,0 25.000595,-11.18805 25.000595,-25.00059 0,-13.80732 -11.193282,-25.0006 -25.000595,-25.0006 z m 0,0"
         transform="matrix(0.74717,0,0,0.74717,0.373585,0.373585)"
         id="path24" />
    </g>
    <path
       style="fill:#b3b3b3;fill-opacity:1;fill-rule:nonzero;stroke:#7f7f7f;stroke-width:3;stroke-linecap:butt;stroke-linejoin:miter;stroke-miterlimit:10;stroke-opacity:1"
       d="m 1.999014,52.000204 c 0,-27.609398 22.391792,-50.00119 50.00119,-50.00119 13.258366,0 25.978242,5.269887 35.357386,14.638575 9.373916,9.384372 14.6438,22.104248 14.6438,35.362615 0,13.258366 -5.269884,25.978242 -14.6438,35.357386 -9.379144,9.373916 -22.09902,14.6438 -35.357386,14.6438 -13.258367,0 -25.978243,-5.269884 -35.362615,-14.6438 C 7.268901,77.978446 1.999014,65.25857 1.999014,52.000204 Z m 50.00119,-25.000595 c -13.812541,0 -25.000595,11.188054 -25.000595,25.000595 0,13.807313 11.188054,25.000595 25.000595,25.000595 13.807313,0 25.000595,-11.193282 25.000595,-25.000595 0,-13.812541 -11.193282,-25.000595 -25.000595,-25.000595 z m 0,0"
       transform="matrix(0.74717,0,0,0.74717,0.373585,0.373585)"
       id="path28" />
  </g>
</svg>
